<?xml version="1.0" standalone="no"?>
<!DOCTYPE svg PUBLIC "-//W3C//DTD SVG 20010904//EN"
 "http://www.w3.org/TR/2001/REC-SVG-20010904/DTD/svg10.dtd">
<svg version="1.0" xmlns="http://www.w3.org/2000/svg"
 width="591.000000pt" height="591.000000pt" viewBox="0 0 591.000000 591.000000"
 preserveAspectRatio="xMidYMid meet">
<metadata>
Created by potrace 1.14, written by Peter Selinger 2001-2017
</metadata>
<g transform="translate(0.000000,591.000000) scale(0.100000,-0.100000)"
fill="#000000" stroke="none">
<path d="M511 4078 c1 -1950 0 -1899 49 -2142 70 -347 248 -727 467 -999 35
-43 63 -80 63 -82 0 -12 201 -212 273 -273 464 -387 993 -582 1583 -582 562 0
1048 165 1498 508 116 89 326 294 410 400 154 195 315 483 391 697 55 153 103
354 125 519 19 143 20 208 20 1967 l0 1819 -2440 0 -2440 0 1 -1832z"/>
</g>
</svg>
